<svg xmlns="http://www.w3.org/2000/svg" width="44" height="44" fill="none"><path fill="#202020" d="M13.09 1.023A19.295 19.295 0 0 1 25.063.884a19.329 19.329 0 0 1 7.94 4.852c1.708 1.715 3.067 3.765 4.043 5.978 2.083-2.385 4.19-4.753 6.288-7.13.163-.253.61-.18.651.13.05.148-.04.295-.138.4-2.172 2.46-4.336 4.917-6.508 7.376a19.62 19.62 0 0 1 1.05 9.8 19.404 19.404 0 0 1-3.157 8.053 19.424 19.424 0 0 1-6.508 5.97c-4.222 2.4-9.372 3.079-14.074 1.895-1.667 1.886-3.335 3.78-5.003 5.66-.162.22-.561.154-.626-.115-.065-.147.008-.31.114-.408 1.578-1.78 3.148-3.57 4.726-5.35a19.32 19.32 0 0 1-7.614-4.328A19.331 19.331 0 0 1 1.44 26.74 19.333 19.333 0 0 1 0 19.415a19.431 19.431 0 0 1 2.335-9.277c2.278-4.255 6.199-7.58 10.754-9.115Zm-1.18 35.894c.691.343 1.44.564 2.172.792 7.5-8.502 15.009-16.995 22.501-25.505-8.224 8.232-16.449 16.48-24.673 24.713Zm2.977 1.005c4.377 1.053 9.12.49 13.114-1.601a19.245 19.245 0 0 0 6.41-5.407 18.908 18.908 0 0 0 3.4-7.334 19.276 19.276 0 0 0-.715-10.829c-7.403 8.388-14.814 16.775-22.209 25.17Z"/></svg>