<svg aria-hidden="true" style="position:absolute;width:0;height:0;overflow:hidden"
  xmlns="http://www.w3.org/2000/svg">
  <defs>
    <symbol id="logo" width="44" height="44" viewBox="0 0 44 44" xmlns="http://www.w3.org/2000/svg">
      <path
        d="M13.0893 1.0232C16.9291 -0.291688 21.1837 -0.340691 25.0641 0.884359C28.0497 1.8154 30.7993 3.50597 33.0039 5.73556C34.7123 7.45063 36.0709 9.50055 37.0471 11.7138C39.1296 9.32904 41.2366 6.96061 43.3354 4.58401C43.4982 4.33083 43.9456 4.40434 43.9863 4.71468C44.0351 4.86169 43.9456 5.00869 43.848 5.11487C41.6759 7.57313 39.512 10.0314 37.3399 12.4897C38.5195 15.5931 38.8774 19.0069 38.3893 22.2901C37.9663 25.1649 36.8681 27.9416 35.2329 30.3427C33.5571 32.801 31.3119 34.8591 28.7249 36.3128C24.5028 38.7139 19.3533 39.3918 14.6513 38.2076C12.9836 40.0941 11.3159 41.9889 9.64823 43.8673C9.48553 44.0878 9.08691 44.0225 9.02183 43.753C8.95675 43.606 9.02996 43.4426 9.13572 43.3446C10.7139 41.5642 12.284 39.7756 13.8622 37.9952C11.0393 37.1622 8.4117 35.6676 6.24778 33.6667C4.1652 31.7475 2.50565 29.3709 1.43996 26.7411C0.488162 24.4217 6.10231e-05 21.9226 6.10231e-05 19.4153C-0.00807402 16.1893 0.797294 12.9715 2.33482 10.1376C4.61263 5.88256 8.53372 2.5586 13.0893 1.0232ZM11.9098 36.9172C12.6012 37.2602 13.3497 37.4807 14.0818 37.7094C21.5823 29.2075 29.091 20.7138 36.5834 12.2038C28.3588 20.4362 20.1343 28.6848 11.9098 36.9172ZM14.8872 37.9217C19.2638 38.9753 24.0066 38.4117 28.0009 36.321C30.4983 35.0224 32.7029 33.1604 34.4113 30.9144C36.0546 28.7502 37.226 26.2347 37.8118 23.5805C38.6171 20.0033 38.3649 16.1893 37.0959 12.751C29.693 21.1385 22.2819 29.526 14.8872 37.9217Z"
      />
    </symbol>

    <symbol id="sun" width="27" height="27" viewBox="0 0 27 27" xmlns="http://www.w3.org/2000/svg">
      <path
        d="M13.5 3.54866C13.6399 3.54866 13.774 3.4931 13.8729 3.3942C13.9718 3.2953 14.0273 3.16117 14.0273 3.02131V0.527344C14.0273 0.387484 13.9718 0.253352 13.8729 0.154455C13.774 0.0555593 13.6399 0 13.5 0C13.3601 0 13.226 0.0555593 13.1271 0.154455C13.0282 0.253352 12.9727 0.387484 12.9727 0.527344V3.02131C12.9727 3.16117 13.0282 3.2953 13.1271 3.3942C13.226 3.4931 13.3601 3.54866 13.5 3.54866Z"
        fill="#FDFCFC" />
      <path
        d="M13.5 23.4514C13.3601 23.4514 13.226 23.507 13.1271 23.6059C13.0282 23.7048 12.9727 23.8389 12.9727 23.9788V26.4727C12.9727 26.6126 13.0282 26.7467 13.1271 26.8456C13.226 26.9445 13.3601 27.0001 13.5 27.0001C13.6399 27.0001 13.774 26.9445 13.8729 26.8456C13.9718 26.7467 14.0273 26.6126 14.0273 26.4727V23.9788C14.0273 23.8389 13.9718 23.7048 13.8729 23.6059C13.774 23.507 13.6399 23.4514 13.5 23.4514Z"
        fill="#FDFCFC" />
      <path
        d="M7.80399 4.68863C7.87392 4.80975 7.9891 4.89814 8.1242 4.93434C8.2593 4.97054 8.40324 4.95159 8.52437 4.88166C8.64549 4.81173 8.73388 4.69655 8.77008 4.56145C8.80628 4.42636 8.78733 4.28241 8.7174 4.16128L7.47039 2.00144C7.43602 1.94098 7.39003 1.88792 7.33506 1.84531C7.2801 1.8027 7.21725 1.77139 7.15013 1.75316C7.08302 1.73494 7.01296 1.73018 6.94399 1.73914C6.87503 1.7481 6.80851 1.77062 6.74829 1.8054C6.68806 1.84017 6.6353 1.88651 6.59306 1.94176C6.55081 1.997 6.51991 2.06006 6.50214 2.1273C6.48436 2.19453 6.48006 2.26462 6.48948 2.33352C6.4989 2.40243 6.52186 2.46879 6.55703 2.52879L7.80399 4.68863Z"
        fill="#FDFCFC" />
      <path
        d="M19.196 22.311C19.126 22.1899 19.0109 22.1015 18.8758 22.0653C18.7407 22.0291 18.5967 22.0481 18.4756 22.118C18.3545 22.1879 18.2661 22.3031 18.2299 22.4382C18.1937 22.5733 18.2126 22.7173 18.2826 22.8384L19.5296 24.9982C19.5639 25.0587 19.6099 25.1118 19.6649 25.1544C19.7199 25.197 19.7827 25.2283 19.8498 25.2465C19.917 25.2647 19.987 25.2695 20.056 25.2605C20.1249 25.2516 20.1915 25.2291 20.2517 25.1943C20.3119 25.1595 20.3647 25.1132 20.4069 25.0579C20.4492 25.0027 20.4801 24.9396 20.4978 24.8724C20.5156 24.8051 20.5199 24.7351 20.5105 24.6662C20.5011 24.5972 20.4781 24.5309 20.4429 24.4709L19.196 22.311Z"
        fill="#FDFCFC" />
      <path
        d="M4.68899 7.80375L2.52915 6.55679C2.46916 6.52162 2.4028 6.49866 2.33389 6.48924C2.26499 6.47981 2.1949 6.48412 2.12766 6.50189C2.06043 6.51967 1.99737 6.55057 1.94212 6.59281C1.88688 6.63506 1.84054 6.68781 1.80576 6.74804C1.77099 6.80827 1.74847 6.87478 1.73951 6.94375C1.73054 7.01271 1.73531 7.08277 1.75353 7.14989C1.77175 7.217 1.80307 7.27985 1.84568 7.33482C1.88829 7.38978 1.94135 7.43577 2.00181 7.47015L4.16165 8.71716C4.28278 8.78709 4.42672 8.80604 4.56182 8.76984C4.69692 8.73364 4.8121 8.64525 4.88203 8.52412C4.95196 8.403 4.97091 8.25905 4.93471 8.12396C4.89851 7.98886 4.81012 7.87368 4.68899 7.80375Z"
        fill="#FDFCFC" />
      <path
        d="M24.9982 19.5297L22.8384 18.2827C22.7173 18.2128 22.5733 18.1938 22.4382 18.23C22.3031 18.2662 22.1879 18.3546 22.118 18.4757C22.0481 18.5968 22.0291 18.7408 22.0653 18.8759C22.1015 19.011 22.1899 19.1262 22.311 19.1961L24.4709 20.4431C24.5309 20.4782 24.5972 20.5012 24.6662 20.5106C24.7351 20.52 24.8051 20.5157 24.8724 20.498C24.9396 20.4802 25.0027 20.4493 25.0579 20.407C25.1132 20.3648 25.1595 20.312 25.1943 20.2518C25.2291 20.1916 25.2516 20.1251 25.2605 20.0561C25.2695 19.9871 25.2647 19.9171 25.2465 19.85C25.2283 19.7828 25.197 19.72 25.1544 19.665C25.1118 19.6101 25.0587 19.5641 24.9982 19.5297Z"
        fill="#FDFCFC" />
      <path
        d="M3.54866 13.5C3.54866 13.3601 3.4931 13.226 3.3942 13.1271C3.2953 13.0282 3.16117 12.9727 3.02131 12.9727H0.527344C0.387484 12.9727 0.253352 13.0282 0.154455 13.1271C0.0555593 13.226 0 13.3601 0 13.5C0 13.6399 0.0555593 13.774 0.154455 13.8729C0.253352 13.9718 0.387484 14.0273 0.527344 14.0273H3.02131C3.16117 14.0273 3.2953 13.9718 3.3942 13.8729C3.4931 13.774 3.54866 13.6399 3.54866 13.5Z"
        fill="#FDFCFC" />
      <path
        d="M26.4725 12.9727H23.9785C23.8387 12.9727 23.7045 13.0282 23.6056 13.1271C23.5067 13.226 23.4512 13.3601 23.4512 13.5C23.4512 13.6399 23.5067 13.774 23.6056 13.8729C23.7045 13.9718 23.8387 14.0273 23.9785 14.0273H26.4725C26.6123 14.0273 26.7465 13.9718 26.8454 13.8729C26.9443 13.774 26.9998 13.6399 26.9998 13.5C26.9998 13.3601 26.9443 13.226 26.8454 13.1271C26.7465 13.0282 26.6123 12.9727 26.4725 12.9727Z"
        fill="#FDFCFC" />
      <path
        d="M4.16165 18.2827L2.00181 19.5297C1.94135 19.5641 1.88829 19.6101 1.84568 19.665C1.80307 19.72 1.77175 19.7828 1.75353 19.85C1.73531 19.9171 1.73054 19.9871 1.73951 20.0561C1.74847 20.1251 1.77099 20.1916 1.80576 20.2518C1.84054 20.312 1.88688 20.3648 1.94212 20.407C1.99737 20.4493 2.06043 20.4802 2.12766 20.498C2.1949 20.5157 2.26499 20.52 2.33389 20.5106C2.4028 20.5012 2.46916 20.4782 2.52915 20.4431L4.68899 19.1961C4.81012 19.1262 4.89851 19.011 4.93471 18.8759C4.97091 18.7408 4.95196 18.5968 4.88203 18.4757C4.8121 18.3546 4.69692 18.2662 4.56182 18.23C4.42672 18.1938 4.28278 18.2128 4.16165 18.2827Z"
        fill="#FDFCFC" />
      <path
        d="M22.5756 8.78787C22.6681 8.78788 22.7588 8.76348 22.8388 8.71716L24.9986 7.47015C25.0591 7.43577 25.1121 7.38978 25.1548 7.33482C25.1974 7.27985 25.2287 7.217 25.2469 7.14989C25.2651 7.08277 25.2699 7.01271 25.2609 6.94375C25.252 6.87478 25.2294 6.80827 25.1947 6.74804C25.1599 6.68781 25.1136 6.63506 25.0583 6.59281C25.0031 6.55057 24.94 6.51967 24.8728 6.50189C24.8055 6.48412 24.7354 6.47981 24.6665 6.48924C24.5976 6.49866 24.5313 6.52162 24.4713 6.55679L22.3114 7.80375C22.2108 7.86179 22.1322 7.95143 22.0877 8.05876C22.0433 8.16608 22.0355 8.28507 22.0656 8.39726C22.0958 8.50945 22.1621 8.60855 22.2543 8.67919C22.3465 8.74982 22.4595 8.78803 22.5756 8.78787Z"
        fill="#FDFCFC" />
      <path
        d="M8.52434 22.118C8.40322 22.0481 8.25928 22.0291 8.12419 22.0653C7.9891 22.1015 7.87392 22.1899 7.80399 22.311L6.55703 24.4709C6.52186 24.5309 6.4989 24.5972 6.48948 24.6661C6.48006 24.735 6.48436 24.8051 6.50214 24.8724C6.51991 24.9396 6.55081 25.0026 6.59306 25.0579C6.6353 25.1131 6.68806 25.1595 6.74829 25.1943C6.80851 25.229 6.87503 25.2515 6.94399 25.2605C7.01296 25.2695 7.08302 25.2647 7.15013 25.2465C7.21725 25.2283 7.2801 25.1969 7.33506 25.1543C7.39003 25.1117 7.43602 25.0587 7.47039 24.9982L8.7174 22.8384C8.78732 22.7172 8.80627 22.5733 8.77006 22.4382C8.73385 22.3031 8.64547 22.1879 8.52434 22.118Z"
        fill="#FDFCFC" />
      <path
        d="M18.4756 4.88164C18.5967 4.95156 18.7407 4.97051 18.8758 4.93432C19.0109 4.89812 19.126 4.80975 19.196 4.68863L20.4429 2.52879C20.4781 2.46879 20.5011 2.40243 20.5105 2.33352C20.5199 2.26462 20.5156 2.19453 20.4978 2.1273C20.48 2.06006 20.4491 1.997 20.4069 1.94176C20.3647 1.88651 20.3119 1.84017 20.2517 1.8054C20.1914 1.77062 20.1249 1.7481 20.056 1.73914C19.987 1.73018 19.9169 1.73494 19.8498 1.75316C19.7827 1.77139 19.7199 1.8027 19.6649 1.84531C19.6099 1.88792 19.5639 1.94098 19.5296 2.00144L18.2826 4.16128C18.2126 4.28241 18.1937 4.42635 18.2299 4.56144C18.2661 4.69654 18.3545 4.81171 18.4756 4.88164Z"
        fill="#FDFCFC" />
      <circle cx="13.5" cy="13.4998" r="7.91379" fill="#FDFCFC" />
    </symbol>

    <symbol id="moon" viewBox="0 0 19 20" fill="none"
      xmlns="http://www.w3.org/2000/svg">
      <path
        d="M10.035 19.9995C13.8749 20.0397 17.3825 17.835 19 14.3647C17.982 14.8073 16.8796 15.024 15.7692 15C11.4167 14.9951 7.88951 11.4805 7.88461 7.1436C7.92819 4.21001 9.55267 1.52665 12.1365 0.119672C11.4397 0.0312667 10.7374 -0.00831497 10.035 0.00144968C4.49267 0.00144968 0 4.47819 0 10.0005C0 15.5229 4.49267 19.9995 10.035 19.9995Z"
        fill="#4B4343" />
    </symbol>

    <symbol id="linkedin-logo" width="32" height="31" viewBox="0 0 32 31"
      xmlns="http://www.w3.org/2000/svg">
      <!-- <defs>
        <linearGradient id="linkedin-background" x1="-2.2665" y1="28.295" x2="39.5636" y2="2.77332"
          gradientUnits="userSpaceOnUse">
          <stop stopColor="#6FA0D8" />
          <stop offset="1" stopColor="#9184E8" />
        </linearGradient>
      </defs> -->
      <path
        d="M26.9163 0H4.37083C2.03617 0 0.143555 1.89261 0.143555 4.22727V26.7727C0.143555 29.1074 2.03617
      31 4.37083 31H26.9163C29.2509 31 31.1436 29.1074 31.1436 26.7727V4.22727C31.1436 1.89261
      29.2509 0 26.9163 0Z"
      />
      <path
        d="M11.3105 8.45436C11.3105 8.97691 11.1555 9.48772 10.8652 9.9222C10.5749 10.3567 10.1623 10.6953 9.67948 10.8953C9.19671 11.0953 8.66548 11.1476 8.15298 11.0456C7.64047 10.9437 7.1697 10.6921 6.80021 10.3226C6.43071 9.95307 6.17908 9.48231 6.07713 8.9698C5.97519 8.45729 6.02751 7.92607 6.22748 7.4433C6.42745 6.96053 6.76609 6.54789 7.20057 6.25758C7.63505 5.96727 8.14587 5.81232 8.66841 5.81232C9.36913 5.81232 10.0411 6.09067 10.5366 6.58615C11.0321 7.08163 11.3105 7.75365 11.3105 8.45436Z"
        fill="white" />
      <path
        d="M10.7126 12.8577V24.5303C10.713 24.6164 10.6965 24.7018 10.6638 24.7814C10.6312 24.8611 10.5831 24.9336 10.5224 24.9946C10.4617 25.0557 10.3895 25.1042 10.31 25.1372C10.2305 25.1703 10.1452 25.1873 10.0591 25.1873H7.27437C7.18826 25.1875 7.10295 25.1707 7.02335 25.1379C6.94375 25.105 6.87143 25.0568 6.81054 24.9959C6.74965 24.935 6.70139 24.8627 6.66855 24.7831C6.6357 24.7035 6.61891 24.6182 6.61914 24.5321V12.8577C6.61914 12.684 6.68818 12.5173 6.81106 12.3944C6.93393 12.2715 7.10059 12.2025 7.27437 12.2025H10.0591C10.2326 12.203 10.3988 12.2722 10.5213 12.395C10.6438 12.5179 10.7126 12.6843 10.7126 12.8577Z"
        fill="white" />
      <path
        d="M25.2674 18.9345V24.5849C25.2677 24.6641 25.2522 24.7425 25.222 24.8157C25.1919 24.8889 25.1475 24.9554 25.0915 25.0114C25.0355 25.0674 24.969 25.1117 24.8958 25.1419C24.8226 25.1721 24.7442 25.1875 24.665 25.1873H21.6707C21.5916 25.1875 21.5131 25.1721 21.4399 25.1419C21.3667 25.1117 21.3002 25.0674 21.2443 25.0114C21.1883 24.9554 21.1439 24.8889 21.1137 24.8157C21.0835 24.7425 21.0681 24.6641 21.0683 24.5849V19.1088C21.0683 18.2916 21.3079 15.5298 18.9318 15.5298C17.0912 15.5298 16.716 17.4197 16.642 18.2687V24.5849C16.642 24.7432 16.5798 24.8951 16.4687 25.0078C16.3576 25.1205 16.2067 25.185 16.0485 25.1873H13.1563C13.0773 25.1873 12.999 25.1717 12.926 25.1414C12.853 25.1111 12.7868 25.0667 12.731 25.0108C12.6752 24.9548 12.631 24.8884 12.6009 24.8153C12.5708 24.7422 12.5554 24.6639 12.5557 24.5849V12.8067C12.5554 12.7277 12.5708 12.6494 12.6009 12.5763C12.631 12.5032 12.6752 12.4368 12.731 12.3808C12.7868 12.3249 12.853 12.2805 12.926 12.2502C12.999 12.2199 13.0773 12.2043 13.1563 12.2043H16.0485C16.2082 12.2043 16.3614 12.2678 16.4744 12.3807C16.5874 12.4937 16.6508 12.6469 16.6508 12.8067V13.8248C17.3342 12.7996 18.347 12.0088 20.5082 12.0088C25.2956 12.0088 25.2674 16.4791 25.2674 18.9345Z"
        fill="white" />
    </symbol>


    <symbol id="instagram-logo" width="31" height="31" viewBox="0 0 31 31"
      xmlns="http://www.w3.org/2000/svg">
      <path
        d="M2.02212 2.15224C-0.406964 4.67485 0.0901871 7.35456 0.0901871 15.4954C0.0901871 22.2559 -1.08958 29.033 5.08488 30.6285C7.01295 31.1243 24.0964 31.1243 26.0219 30.6259C28.5926 29.9628 30.6843 27.878 30.9702 24.2428C31.0101 23.7354 31.0101 7.26442 30.9689 6.74676C30.665 2.87464 28.281 0.643049 25.1396 0.191065C24.4197 0.0867609 24.2754 0.055856 20.5816 0.0494175C7.47919 0.055856 4.60705 -0.527474 2.02212 2.15224Z"
      />
      <path
        d="M15.5427 4.09182C10.8662 4.09182 6.42529 3.6759 4.72905 8.02833C4.02841 9.82596 4.13015 12.1606 4.13015 15.5034C4.13015 18.4368 4.03613 21.1938 4.72905 22.9773C6.42143 27.3323 10.8984 26.9151 15.5402 26.9151C20.0184 26.9151 24.6357 27.3812 26.3525 22.9773C27.0545 21.1616 26.9514 18.8618 26.9514 15.5034C26.9514 11.0454 27.1974 8.1674 25.035 6.00664C22.8454 3.81754 19.8844 4.09182 15.5376 4.09182H15.5427ZM14.5201 6.14828C24.2751 6.13283 25.5167 5.04859 24.8315 20.1108C24.588 25.4381 20.531 24.8535 15.544 24.8535C6.45105 24.8535 6.1896 24.5933 6.1896 15.4983C6.1896 6.29766 6.91085 6.15344 14.5201 6.14571V6.14828ZM21.6348 8.0425C20.8787 8.0425 20.2657 8.65544 20.2657 9.41132C20.2657 10.1672 20.8787 10.7802 21.6348 10.7802C22.3908 10.7802 23.0039 10.1672 23.0039 9.41132C23.0039 8.65544 22.3908 8.0425 21.6348 8.0425ZM15.5427 9.64311C12.3061 9.64311 9.68253 12.2674 9.68253 15.5034C9.68253 18.7394 12.3061 21.3625 15.5427 21.3625C18.7794 21.3625 21.4016 18.7394 21.4016 15.5034C21.4016 12.2674 18.7794 9.64311 15.5427 9.64311ZM15.5427 11.6996C20.5722 11.6996 20.5786 19.3073 15.5427 19.3073C10.5146 19.3073 10.5068 11.6996 15.5427 11.6996Z"
        fill="white" />
      <!-- <defs>
        <linearGradient id="paint0_linear_715_3084" x1="-2.41006" y1="28.295" x2="39.42"
          y2="2.77332" gradientUnits="userSpaceOnUse">
          <stop stop-color="#6FA0D8" />
          <stop offset="1" stop-color="#9184E8" />
        </linearGradient>
      </defs> -->
    </symbol>

    <symbol id="qr"
      viewBox="0 0 212 212">
      <path
        d="M13 13h5v5h-5zm5 0h5v5h-5zm5 0h5v5h-5zm5 0h5v5h-5zm5 0h5v5h-5zm5 0h5v5h-5zm5 0h5v5h-5zm20 0h5v5h-5zm5 0h5v5h-5zm5 0h5v5h-5zm5 0h5v5h-5zm10 0h5v5h-5zm5 0h5v5h-5zm10 0h5v5h-5zm25 0h5v5h-5zm10 0h5v5h-5zm10 0h5v5h-5zm5 0h5v5h-5zm10 0h5v5h-5zm5 0h5v5h-5zm5 0h5v5h-5zm5 0h5v5h-5zm5 0h5v5h-5zm5 0h5v5h-5zm5 0h5v5h-5zM13 18h5v5h-5zm30 0h5v5h-5zm10 0h5v5h-5zm5 0h5v5h-5zm15 0h5v5h-5zm15 0h5v5h-5zm15 0h5v5h-5zm5 0h5v5h-5zm15 0h5v5h-5zm5 0h5v5h-5zm10 0h5v5h-5zm5 0h5v5h-5zm20 0h5v5h-5zm30 0h5v5h-5zM13 23h5v5h-5zm10 0h5v5h-5zm5 0h5v5h-5zm5 0h5v5h-5zm10 0h5v5h-5zm10 0h5v5h-5zm5 0h5v5h-5zm10 0h5v5h-5zm5 0h5v5h-5zm5 0h5v5h-5zm25 0h5v5h-5zm15 0h5v5h-5zm15 0h5v5h-5zm5 0h5v5h-5zm5 0h5v5h-5zm20 0h5v5h-5zm10 0h5v5h-5zm5 0h5v5h-5zm5 0h5v5h-5zm10 0h5v5h-5zM13 28h5v5h-5zm10 0h5v5h-5zm5 0h5v5h-5zm5 0h5v5h-5zm10 0h5v5h-5zm10 0h5v5h-5zm5 0h5v5h-5zm10 0h5v5h-5zm5 0h5v5h-5zm15 0h5v5h-5zm5 0h5v5h-5zm5 0h5v5h-5zm5 0h5v5h-5zm15 0h5v5h-5zm15 0h5v5h-5zm10 0h5v5h-5zm20 0h5v5h-5zm10 0h5v5h-5zm5 0h5v5h-5zm5 0h5v5h-5zm10 0h5v5h-5zM13 33h5v5h-5zm10 0h5v5h-5zm5 0h5v5h-5zm5 0h5v5h-5zm10 0h5v5h-5zm10 0h5v5h-5zm5 0h5v5h-5zm5 0h5v5h-5zm5 0h5v5h-5zm5 0h5v5h-5zm5 0h5v5h-5zm25 0h5v5h-5zm5 0h5v5h-5zm5 0h5v5h-5zm10 0h5v5h-5zm10 0h5v5h-5zm5 0h5v5h-5zm15 0h5v5h-5zm10 0h5v5h-5zm10 0h5v5h-5zm5 0h5v5h-5zm5 0h5v5h-5zm10 0h5v5h-5zM13 38h5v5h-5zm30 0h5v5h-5zm10 0h5v5h-5zm10 0h5v5h-5zm25 0h5v5h-5zm15 0h5v5h-5zm5 0h5v5h-5zm10 0h5v5h-5zm15 0h5v5h-5zm15 0h5v5h-5zm5 0h5v5h-5zm10 0h5v5h-5zm30 0h5v5h-5zM13 43h5v5h-5zm5 0h5v5h-5zm5 0h5v5h-5zm5 0h5v5h-5zm5 0h5v5h-5zm5 0h5v5h-5zm5 0h5v5h-5zm10 0h5v5h-5zm10 0h5v5h-5zm10 0h5v5h-5zm10 0h5v5h-5zm10 0h5v5h-5zm10 0h5v5h-5zm10 0h5v5h-5zm10 0h5v5h-5zm10 0h5v5h-5zm10 0h5v5h-5zm10 0h5v5h-5zm10 0h5v5h-5zm5 0h5v5h-5zm5 0h5v5h-5zm5 0h5v5h-5zm5 0h5v5h-5zm5 0h5v5h-5zm5 0h5v5h-5zM58 48h5v5h-5zm10 0h5v5h-5zm20 0h5v5h-5zm5 0h5v5h-5zm5 0h5v5h-5zm5 0h5v5h-5zm10 0h5v5h-5zm20 0h5v5h-5zm10 0h5v5h-5zm5 0h5v5h-5zM23 53h5v5h-5zm15 0h5v5h-5zm5 0h5v5h-5zm5 0h5v5h-5zm5 0h5v5h-5zm5 0h5v5h-5zm30 0h5v5h-5zm10 0h5v5h-5zm10 0h5v5h-5zm10 0h5v5h-5zm5 0h5v5h-5zm5 0h5v5h-5zm10 0h5v5h-5zm5 0h5v5h-5zm5 0h5v5h-5zm5 0h5v5h-5zm5 0h5v5h-5zm10 0h5v5h-5zm5 0h5v5h-5zm5 0h5v5h-5zm5 0h5v5h-5zm5 0h5v5h-5zM13 58h5v5h-5zm10 0h5v5h-5zm15 0h5v5h-5zm10 0h5v5h-5zm15 0h5v5h-5zm10 0h5v5h-5zm20 0h5v5h-5zm5 0h5v5h-5zm5 0h5v5h-5zm15 0h5v5h-5zm5 0h5v5h-5zm20 0h5v5h-5zm10 0h5v5h-5zm5 0h5v5h-5zm5 0h5v5h-5zm15 0h5v5h-5zm10 0h5v5h-5zM13 63h5v5h-5zm25 0h5v5h-5zm5 0h5v5h-5zm10 0h5v5h-5zm15 0h5v5h-5zm10 0h5v5h-5zm5 0h5v5h-5zm20 0h5v5h-5zm5 0h5v5h-5zm5 0h5v5h-5zm15 0h5v5h-5zm5 0h5v5h-5zm10 0h5v5h-5zm10 0h5v5h-5zm10 0h5v5h-5zm30 0h5v5h-5zM23 68h5v5h-5zm5 0h5v5h-5zm5 0h5v5h-5zm20 0h5v5h-5zm5 0h5v5h-5zm10 0h5v5h-5zm5 0h5v5h-5zm10 0h5v5h-5zm5 0h5v5h-5zm10 0h5v5h-5zm5 0h5v5h-5zm5 0h5v5h-5zm5 0h5v5h-5zm10 0h5v5h-5zm10 0h5v5h-5zm5 0h5v5h-5zm10 0h5v5h-5zm5 0h5v5h-5zm5 0h5v5h-5zm5 0h5v5h-5zm15 0h5v5h-5zm10 0h5v5h-5zm5 0h5v5h-5zM13 73h5v5h-5zm10 0h5v5h-5zm5 0h5v5h-5zm15 0h5v5h-5zm5 0h5v5h-5zm15 0h5v5h-5zm5 0h5v5h-5zm5 0h5v5h-5zm10 0h5v5h-5zm15 0h5v5h-5zm5 0h5v5h-5zm15 0h5v5h-5zm35 0h5v5h-5zm10 0h5v5h-5zm5 0h5v5h-5zm10 0h5v5h-5zm10 0h5v5h-5zm5 0h5v5h-5zM18 78h5v5h-5zm5 0h5v5h-5zm10 0h5v5h-5zm5 0h5v5h-5zm15 0h5v5h-5zm25 0h5v5h-5zm25 0h5v5h-5zm20 0h5v5h-5zm20 0h5v5h-5zm5 0h5v5h-5zm20 0h5v5h-5zm5 0h5v5h-5zm15 0h5v5h-5zm5 0h5v5h-5zM18 83h5v5h-5zm10 0h5v5h-5zm15 0h5v5h-5zm15 0h5v5h-5zm10 0h5v5h-5zm5 0h5v5h-5zm15 0h5v5h-5zm5 0h5v5h-5zm10 0h5v5h-5zm5 0h5v5h-5zm5 0h5v5h-5zm15 0h5v5h-5zm5 0h5v5h-5zm15 0h5v5h-5zm15 0h5v5h-5zm5 0h5v5h-5zm10 0h5v5h-5zM13 88h5v5h-5zm15 0h5v5h-5zm5 0h5v5h-5zm15 0h5v5h-5zm5 0h5v5h-5zm30 0h5v5h-5zm25 0h5v5h-5zm5 0h5v5h-5zm5 0h5v5h-5zm5 0h5v5h-5zm5 0h5v5h-5zm15 0h5v5h-5zm5 0h5v5h-5zm5 0h5v5h-5zm10 0h5v5h-5zm5 0h5v5h-5zm10 0h5v5h-5zm15 0h5v5h-5zM18 93h5v5h-5zm5 0h5v5h-5zm5 0h5v5h-5zm10 0h5v5h-5zm5 0h5v5h-5zm15 0h5v5h-5zm5 0h5v5h-5zm10 0h5v5h-5zm20 0h5v5h-5zm25 0h5v5h-5zm20 0h5v5h-5zm5 0h5v5h-5zm5 0h5v5h-5zm35 0h5v5h-5zm10 0h5v5h-5zM28 98h5v5h-5zm5 0h5v5h-5zm15 0h5v5h-5zm25 0h5v5h-5zm10 0h5v5h-5zm5 0h5v5h-5zm10 0h5v5h-5zm10 0h5v5h-5zm5 0h5v5h-5zm15 0h5v5h-5zm5 0h5v5h-5zm20 0h5v5h-5zm15 0h5v5h-5zm10 0h5v5h-5zm-165 5h5v5h-5zm5 0h5v5h-5zm15 0h5v5h-5zm10 0h5v5h-5zm20 0h5v5h-5zm5 0h5v5h-5zm5 0h5v5h-5zm5 0h5v5h-5zm10 0h5v5h-5zm15 0h5v5h-5zm20 0h5v5h-5zm5 0h5v5h-5zm5 0h5v5h-5zm5 0h5v5h-5zm15 0h5v5h-5zm10 0h5v5h-5zm5 0h5v5h-5zm10 0h5v5h-5zm15 0h5v5h-5zm-175 5h5v5h-5zm10 0h5v5h-5zm20 0h5v5h-5zm5 0h5v5h-5zm5 0h5v5h-5zm5 0h5v5h-5zm5 0h5v5h-5zm10 0h5v5h-5zm5 0h5v5h-5zm10 0h5v5h-5zm5 0h5v5h-5zm5 0h5v5h-5zm5 0h5v5h-5zm10 0h5v5h-5zm5 0h5v5h-5zm5 0h5v5h-5zm5 0h5v5h-5zm15 0h5v5h-5zm5 0h5v5h-5zm10 0h5v5h-5zm5 0h5v5h-5zm10 0h5v5h-5zm5 0h5v5h-5zm10 0h5v5h-5zm-155 5h5v5h-5zm5 0h5v5h-5zm20 0h5v5h-5zm20 0h5v5h-5zm10 0h5v5h-5zm5 0h5v5h-5zm10 0h5v5h-5zm10 0h5v5h-5zm25 0h5v5h-5zm5 0h5v5h-5zm10 0h5v5h-5zm5 0h5v5h-5zm5 0h5v5h-5zm5 0h5v5h-5zm15 0h5v5h-5zm-175 5h5v5h-5zm10 0h5v5h-5zm10 0h5v5h-5zm15 0h5v5h-5zm10 0h5v5h-5zm10 0h5v5h-5zm10 0h5v5h-5zm15 0h5v5h-5zm20 0h5v5h-5zm5 0h5v5h-5zm10 0h5v5h-5zm10 0h5v5h-5zm5 0h5v5h-5zm5 0h5v5h-5zm10 0h5v5h-5zm10 0h5v5h-5zm10 0h5v5h-5zm-160 5h5v5h-5zm10 0h5v5h-5zm15 0h5v5h-5zm20 0h5v5h-5zm5 0h5v5h-5zm15 0h5v5h-5zm10 0h5v5h-5zm5 0h5v5h-5zm10 0h5v5h-5zm5 0h5v5h-5zm5 0h5v5h-5zm5 0h5v5h-5zm25 0h5v5h-5zm10 0h5v5h-5zm5 0h5v5h-5zm20 0h5v5h-5zm5 0h5v5h-5zm-175 5h5v5h-5zm5 0h5v5h-5zm10 0h5v5h-5zm10 0h5v5h-5zm10 0h5v5h-5zm5 0h5v5h-5zm10 0h5v5h-5zm10 0h5v5h-5zm5 0h5v5h-5zm5 0h5v5h-5zm5 0h5v5h-5zm15 0h5v5h-5zm5 0h5v5h-5zm5 0h5v5h-5zm10 0h5v5h-5zm5 0h5v5h-5zm10 0h5v5h-5zm10 0h5v5h-5zm5 0h5v5h-5zm5 0h5v5h-5zm5 0h5v5h-5zm5 0h5v5h-5zm20 0h5v5h-5zm5 0h5v5h-5zm-180 5h5v5h-5zm25 0h5v5h-5zm5 0h5v5h-5zm5 0h5v5h-5zm5 0h5v5h-5zm10 0h5v5h-5zm10 0h5v5h-5zm10 0h5v5h-5zm5 0h5v5h-5zm10 0h5v5h-5zm10 0h5v5h-5zm5 0h5v5h-5zm20 0h5v5h-5zm5 0h5v5h-5zm10 0h5v5h-5zm5 0h5v5h-5zm5 0h5v5h-5zm10 0h5v5h-5zm5 0h5v5h-5zm5 0h5v5h-5zm5 0h5v5h-5zm5 0h5v5h-5zm5 0h5v5h-5zm-170 5h5v5h-5zm5 0h5v5h-5zm5 0h5v5h-5zm15 0h5v5h-5zm35 0h5v5h-5zm20 0h5v5h-5zm30 0h5v5h-5zm35 0h5v5h-5zm5 0h5v5h-5zm5 0h5v5h-5zm10 0h5v5h-5zm5 0h5v5h-5zm-180 5h5v5h-5zm5 0h5v5h-5zm10 0h5v5h-5zm5 0h5v5h-5zm10 0h5v5h-5zm10 0h5v5h-5zm5 0h5v5h-5zm10 0h5v5h-5zm5 0h5v5h-5zm10 0h5v5h-5zm5 0h5v5h-5zm10 0h5v5h-5zm5 0h5v5h-5zm5 0h5v5h-5zm5 0h5v5h-5zm5 0h5v5h-5zm5 0h5v5h-5zm10 0h5v5h-5zm10 0h5v5h-5zm5 0h5v5h-5zm5 0h5v5h-5zm10 0h5v5h-5zm5 0h5v5h-5zm5 0h5v5h-5zm10 0h5v5h-5zm-160 5h5v5h-5zm5 0h5v5h-5zm5 0h5v5h-5zm5 0h5v5h-5zm10 0h5v5h-5zm30 0h5v5h-5zm15 0h5v5h-5zm20 0h5v5h-5zm15 0h5v5h-5zm5 0h5v5h-5zm5 0h5v5h-5zm20 0h5v5h-5zm5 0h5v5h-5zm5 0h5v5h-5zm10 0h5v5h-5zm15 0h5v5h-5zm-180 5h5v5h-5zm5 0h5v5h-5zm5 0h5v5h-5zm10 0h5v5h-5zm10 0h5v5h-5zm5 0h5v5h-5zm5 0h5v5h-5zm10 0h5v5h-5zm10 0h5v5h-5zm10 0h5v5h-5zm10 0h5v5h-5zm5 0h5v5h-5zm25 0h5v5h-5zm10 0h5v5h-5zm15 0h5v5h-5zm5 0h5v5h-5zm5 0h5v5h-5zm5 0h5v5h-5zm5 0h5v5h-5zm5 0h5v5h-5zm5 0h5v5h-5zm5 0h5v5h-5zm5 0h5v5h-5zm5 0h5v5h-5zm-140 5h5v5h-5zm10 0h5v5h-5zm20 0h5v5h-5zm5 0h5v5h-5zm5 0h5v5h-5zm25 0h5v5h-5zm10 0h5v5h-5zm5 0h5v5h-5zm10 0h5v5h-5zm5 0h5v5h-5zm5 0h5v5h-5zm20 0h5v5h-5zm5 0h5v5h-5zm10 0h5v5h-5zm5 0h5v5h-5zm-180 5h5v5h-5zm5 0h5v5h-5zm5 0h5v5h-5zm5 0h5v5h-5zm5 0h5v5h-5zm5 0h5v5h-5zm5 0h5v5h-5zm10 0h5v5h-5zm10 0h5v5h-5zm5 0h5v5h-5zm5 0h5v5h-5zm10 0h5v5h-5zm10 0h5v5h-5zm25 0h5v5h-5zm5 0h5v5h-5zm5 0h5v5h-5zm5 0h5v5h-5zm15 0h5v5h-5zm5 0h5v5h-5zm10 0h5v5h-5zm10 0h5v5h-5zm5 0h5v5h-5zm15 0h5v5h-5zm-180 5h5v5h-5zm30 0h5v5h-5zm10 0h5v5h-5zm10 0h5v5h-5zm5 0h5v5h-5zm10 0h5v5h-5zm30 0h5v5h-5zm5 0h5v5h-5zm5 0h5v5h-5zm5 0h5v5h-5zm10 0h5v5h-5zm10 0h5v5h-5zm5 0h5v5h-5zm5 0h5v5h-5zm20 0h5v5h-5zm10 0h5v5h-5zm10 0h5v5h-5zm-180 5h5v5h-5zm10 0h5v5h-5zm5 0h5v5h-5zm5 0h5v5h-5zm10 0h5v5h-5zm15 0h5v5h-5zm5 0h5v5h-5zm5 0h5v5h-5zm25 0h5v5h-5zm5 0h5v5h-5zm5 0h5v5h-5zm5 0h5v5h-5zm10 0h5v5h-5zm5 0h5v5h-5zm5 0h5v5h-5zm15 0h5v5h-5zm5 0h5v5h-5zm5 0h5v5h-5zm5 0h5v5h-5zm5 0h5v5h-5zm5 0h5v5h-5zm5 0h5v5h-5zm5 0h5v5h-5zm5 0h5v5h-5zm10 0h5v5h-5zm-180 5h5v5h-5zm10 0h5v5h-5zm5 0h5v5h-5zm5 0h5v5h-5zm10 0h5v5h-5zm35 0h5v5h-5zm5 0h5v5h-5zm20 0h5v5h-5zm10 0h5v5h-5zm5 0h5v5h-5zm5 0h5v5h-5zm20 0h5v5h-5zm5 0h5v5h-5zm5 0h5v5h-5zm35 0h5v5h-5zm-175 5h5v5h-5zm10 0h5v5h-5zm5 0h5v5h-5zm5 0h5v5h-5zm10 0h5v5h-5zm10 0h5v5h-5zm5 0h5v5h-5zm5 0h5v5h-5zm10 0h5v5h-5zm10 0h5v5h-5zm10 0h5v5h-5zm10 0h5v5h-5zm5 0h5v5h-5zm15 0h5v5h-5zm5 0h5v5h-5zm25 0h5v5h-5zm5 0h5v5h-5zm5 0h5v5h-5zm5 0h5v5h-5zm10 0h5v5h-5zm10 0h5v5h-5zm5 0h5v5h-5zm-180 5h5v5h-5zm30 0h5v5h-5zm20 0h5v5h-5zm5 0h5v5h-5zm10 0h5v5h-5zm10 0h5v5h-5zm5 0h5v5h-5zm20 0h5v5h-5zm35 0h5v5h-5zm5 0h5v5h-5zm15 0h5v5h-5zm10 0h5v5h-5zm5 0h5v5h-5zm5 0h5v5h-5zm5 0h5v5h-5zm-180 5h5v5h-5zm5 0h5v5h-5zm5 0h5v5h-5zm5 0h5v5h-5zm5 0h5v5h-5zm5 0h5v5h-5zm5 0h5v5h-5zm20 0h5v5h-5zm5 0h5v5h-5zm5 0h5v5h-5zm15 0h5v5h-5zm10 0h5v5h-5zm10 0h5v5h-5zm20 0h5v5h-5zm5 0h5v5h-5zm25 0h5v5h-5zm15 0h5v5h-5zm5 0h5v5h-5zm15 0h5v5h-5z" />
    </symbol>
  </defs>
</svg>